<?xml version="1.0" encoding="iso-8859-1"?>
<!-- Generator: Adobe Illustrator 19.0.0, SVG Export Plug-In . SVG Version: 6.00 Build 0)  --><svg xmlns="http://www.w3.org/2000/svg" xmlns:xlink="http://www.w3.org/1999/xlink" version="1.1" id="Capa_1" x="0px" y="0px" viewBox="0 0 512 512" style="enable-background:new 0 0 512 512;" xml:space="preserve">
<polygon style="fill:#0E6A8E;" points="307.06,0 461.172,0 333.055,163.51 178.943,163.51 "/>
<polygon style="fill:#E52E40;" points="307.06,0 372.191,0 244.074,163.51 178.943,163.51 "/>
<polygon style="fill:#EAEAE4;" points="356.873,0 411.359,0 283.242,163.51 228.756,163.51 "/>
<g>
	<circle style="fill: #ed9d5d;" cx="256" cy="352.381" r="159.619"/>
	<path style="fill: #ed9d5d;" d="M178.945,212.568V163.51h154.112v49.058l26.122,18.024v-80.144c0-7.21-5.841-13.061-13.061-13.061   H165.884c-7.21,0-13.061,5.851-13.061,13.061v80.154L178.945,212.568z"/>
</g>
<circle style="fill: #d58d54;" cx="256" cy="352.381" r="119.495"/>
<polygon style="fill:#E52E40;" points="204.94,0 50.828,0 178.945,163.51 333.057,163.51 "/>
<polygon style="fill:#0E6A8E;" points="204.94,0 139.808,0 267.926,163.51 333.057,163.51 "/>
<polygon style="fill:#EAEAE4;" points="155.127,0 100.641,0 228.758,163.51 283.244,163.51 "/>
<path style="fill: #ed9d5d;" d="M286.741,385.208v-4.37c0-18.399-11.269-25.069-28.059-25.069c-5.749,0-7.819-4.83-7.819-9.659  c0-5.06,2.07-9.89,7.819-9.89c14.029,0,23.919-4.37,23.919-25.299c0-16.789-8.05-23.689-22.998-23.689  c-18.629,0-23.92,9.429-23.92,18.859c0,5.98-2.76,9.89-11.499,9.89c-10.809,0-12.65-2.531-12.65-11.27  c0-14.949,10.35-38.868,48.298-38.868c26.908,0,46.228,10.58,46.228,40.939c0,19.089-7.36,33.118-18.399,38.408  c13.569,5.29,23.459,16.1,23.459,35.649v4.37c0,36.568-23.459,50.137-52.438,50.137c-35.878,0-50.828-22.31-50.828-40.477  c0-8.05,2.989-10.35,11.269-10.35c10.12,0,12.65,2.989,12.65,9.2c0,10.12,8.51,20.009,27.139,20.009  C277.771,413.727,286.741,405.218,286.741,385.208z"/>
<g>
</g>
<g>
</g>
<g>
</g>
<g>
</g>
<g>
</g>
<g>
</g>
<g>
</g>
<g>
</g>
<g>
</g>
<g>
</g>
<g>
</g>
<g>
</g>
<g>
</g>
<g>
</g>
<g>
</g>
</svg>
