<?xml version="1.0" encoding="iso-8859-1"?>
<!-- Generator: Adobe Illustrator 19.0.0, SVG Export Plug-In . SVG Version: 6.00 Build 0)  -->
<svg version="1.1" id="Capa_1" xmlns="http://www.w3.org/2000/svg" xmlns:xlink="http://www.w3.org/1999/xlink" x="0px" y="0px"
	 viewBox="0 0 512 512" style="enable-background:new 0 0 512 512;" xml:space="preserve">
<polygon style="fill:#0E6A8E;" points="307.06,0 461.172,0 333.055,163.51 178.943,163.51 "/>
<polygon style="fill:#E52E40;" points="307.06,0 372.191,0 244.074,163.51 178.943,163.51 "/>
<polygon style="fill:#EAEAE4;" points="356.873,0 411.359,0 283.242,163.51 228.756,163.51 "/>
<g>
	<circle style="fill:#F9AC30;" cx="256" cy="352.381" r="159.619"/>
	<path style="fill:#F9AC30;" d="M178.945,212.568V163.51h154.112v49.058l26.122,18.024v-80.144c0-7.21-5.841-13.061-13.061-13.061
		H165.884c-7.21,0-13.061,5.851-13.061,13.061v80.154L178.945,212.568z"/>
</g>
<circle style="fill:#DD8D19;" cx="256" cy="352.381" r="119.495"/>
<polygon style="fill:#E52E40;" points="204.94,0 50.828,0 178.945,163.51 333.057,163.51 "/>
<polygon style="fill:#0E6A8E;" points="204.94,0 139.808,0 267.926,163.51 333.057,163.51 "/>
<polygon style="fill:#EAEAE4;" points="155.127,0 100.641,0 228.758,163.51 283.244,163.51 "/>
<path style="fill:#F9AC30;" d="M248.551,299.629l-8.05,10.12c-1.61,1.61-3.68,2.3-5.059,2.3c-4.831,0-8.28-5.059-8.28-9.89
	c0-3.449,1.84-7.359,4.831-9.429l23.919-22.999c1.61-1.609,3.45-2.53,6.21-2.53c5.059,0,10.809,2.989,10.809,8.05v152.253
	c0,5.29-6.21,8.05-12.19,8.05c-6.21,0-12.19-2.761-12.19-8.05V299.629z"/>
<g>
</g>
<g>
</g>
<g>
</g>
<g>
</g>
<g>
</g>
<g>
</g>
<g>
</g>
<g>
</g>
<g>
</g>
<g>
</g>
<g>
</g>
<g>
</g>
<g>
</g>
<g>
</g>
<g>
</g>
</svg>
