<?xml version="1.0" encoding="UTF-8" standalone="no"?>
<!-- Created with Inkscape (http://www.inkscape.org/) -->

<svg
   xmlns:dc="http://purl.org/dc/elements/1.1/"
   xmlns:cc="http://creativecommons.org/ns#"
   xmlns:rdf="http://www.w3.org/1999/02/22-rdf-syntax-ns#"
   xmlns:svg="http://www.w3.org/2000/svg"
   xmlns="http://www.w3.org/2000/svg"
   xmlns:sodipodi="http://sodipodi.sourceforge.net/DTD/sodipodi-0.dtd"
   xmlns:inkscape="http://www.inkscape.org/namespaces/inkscape"
   id="svg2"
   version="1.1"
   inkscape:version="0.91 r13725"
   width="861"
   height="172"
   viewBox="0 0 861 172"
   sodipodi:docname="logo.svg">
  <metadata
     id="metadata8">
    <rdf:RDF>
      <cc:Work
         rdf:about="">
        <dc:format>image/svg+xml</dc:format>
        <dc:type
           rdf:resource="http://purl.org/dc/dcmitype/StillImage" />
        <dc:title></dc:title>
      </cc:Work>
    </rdf:RDF>
  </metadata>
  <defs
     id="defs6" />
  <sodipodi:namedview
     pagecolor="#ffffff"
     bordercolor="#666666"
     borderopacity="1"
     objecttolerance="10"
     gridtolerance="10"
     guidetolerance="10"
     inkscape:pageopacity="0"
     inkscape:pageshadow="2"
     inkscape:window-width="1920"
     inkscape:window-height="1017"
     id="namedview4"
     showgrid="false"
     inkscape:zoom="0.34494774"
     inkscape:cx="166.69192"
     inkscape:cy="86"
     inkscape:window-x="0"
     inkscape:window-y="30"
     inkscape:window-maximized="1"
     inkscape:current-layer="svg2" />
  <path
     inkscape:connector-curvature="0"
     style="fill:#87ced9"
     d="m 138.82967,7.2551329 -104.719905,0 c -6.087494,0 -11.023052,4.9355581 -11.023052,11.0230531 l 0,66.138915 126.766317,0 0,-66.138915 C 149.85271,12.190691 144.91716,7.2551329 138.82967,7.2551329 Z"
     id="path3" />
  <path
     inkscape:connector-curvature="0"
     style="fill:#7dc6d1"
     d="m 138.82967,7.2551329 -14.69678,0 -77.161968,77.1619681 102.881788,0 0,-66.138915 c 0,-6.087495 -4.93555,-11.0230531 -11.02304,-11.0230531 z"
     id="path5" />
  <g
     transform="matrix(0.31217925,0,0,0.31217925,6.5518283,7.2551329)"
     id="g7">
    <polygon
       style="fill:#4398d1"
       points="291.31,308.966 220.69,308.966 205.559,361.931 167.724,361.931 167.724,379.586 344.276,379.586 344.276,361.931 306.441,361.931 "
       id="polygon9" />
    <path
       inkscape:connector-curvature="0"
       style="fill:#4398d1"
       d="m 52.966,273.655 c 0,19.5 15.81,35.31 35.31,35.31 l 335.448,0 c 19.5,0 35.31,-15.81 35.31,-35.31 l 0,-26.483 -406.068,0 0,26.483 z"
       id="path11" />
    <rect
       x="79.447998"
       y="406.069"
       style="fill:#4398d1"
       width="247.172"
       height="105.931"
       id="rect13" />
    <path
       inkscape:connector-curvature="0"
       style="fill:#4398d1"
       d="m 397.241,406.069 0,0 c 19.5,0 35.31,15.81 35.31,35.31 l 0,35.31 c 0,19.5 -15.81,35.31 -35.31,35.31 l 0,0 c -19.5,0 -35.31,-15.81 -35.31,-35.31 l 0,-35.31 c 0,-19.5 15.81,-35.31 35.31,-35.31 z"
       id="path15" />
  </g>
  <g
     transform="matrix(0.31217925,0,0,0.31217925,6.5518283,7.2551329)"
     id="g17">
    <rect
       x="105.931"
       y="467.862"
       style="fill:#3b86b8"
       width="17.655001"
       height="17.655001"
       id="rect19" />
    <rect
       x="105.931"
       y="432.552"
       style="fill:#3b86b8"
       width="17.655001"
       height="17.655001"
       id="rect21" />
    <rect
       x="141.241"
       y="432.552"
       style="fill:#3b86b8"
       width="17.655001"
       height="17.655001"
       id="rect23" />
    <rect
       x="176.552"
       y="432.552"
       style="fill:#3b86b8"
       width="17.655001"
       height="17.655001"
       id="rect25" />
    <rect
       x="247.172"
       y="432.552"
       style="fill:#3b86b8"
       width="17.655001"
       height="17.655001"
       id="rect27" />
    <rect
       x="211.862"
       y="432.552"
       style="fill:#3b86b8"
       width="17.655001"
       height="17.655001"
       id="rect29" />
    <rect
       x="282.483"
       y="467.862"
       style="fill:#3b86b8"
       width="17.655001"
       height="17.655001"
       id="rect31" />
    <rect
       x="282.483"
       y="432.552"
       style="fill:#3b86b8"
       width="17.655001"
       height="17.655001"
       id="rect33" />
    <rect
       x="141.241"
       y="467.862"
       style="fill:#3b86b8"
       width="123.586"
       height="17.655001"
       id="rect35" />
    <rect
       x="388.414"
       y="432.552"
       style="fill:#3b86b8"
       width="17.655001"
       height="17.655001"
       id="rect37" />
  </g>
  <g
     transform="matrix(0.31217925,0,0,0.31217925,6.5518283,7.2551329)"
     id="g39">
    <rect
       x="191.72701"
       y="123.75"
       transform="matrix(-0.2751,0.9614,-0.9614,-0.2751,453.8392,-77.0437)"
       style="fill:#3077a6"
       width="128.47501"
       height="17.646"
       id="rect41" />
    <path
       inkscape:connector-curvature="0"
       style="fill:#3077a6"
       d="m 197.385,183.331 -52.966,-44.138 c -3.743,-3.125 -4.246,-8.686 -1.13,-12.429 0.344,-0.406 0.715,-0.786 1.13,-1.13 l 52.966,-44.138 11.299,13.559 -44.826,37.358 44.826,37.358 -11.299,13.56 z"
       id="path43" />
    <path
       inkscape:connector-curvature="0"
       style="fill:#3077a6"
       d="m 314.615,183.331 -11.299,-13.559 44.826,-37.358 -44.826,-37.358 11.299,-13.559 52.966,44.138 c 3.743,3.125 4.246,8.686 1.13,12.429 -0.344,0.406 -0.715,0.786 -1.13,1.13 l -52.966,44.137 z"
       id="path45" />
  </g>
  <polygon
     transform="matrix(0.31217925,0,0,0.31217925,6.5518283,7.2551329)"
     style="fill:#3b86b8"
     points="291.31,308.966 220.69,308.966 215.649,326.621 296.351,326.621 "
     id="polygon47" />
  <g
     transform="matrix(0.31217925,0,0,0.31217925,6.5518283,7.2551329)"
     id="g49" />
  <g
     transform="matrix(0.31217925,0,0,0.31217925,6.5518283,7.2551329)"
     id="g51" />
  <g
     transform="matrix(0.31217925,0,0,0.31217925,6.5518283,7.2551329)"
     id="g53" />
  <g
     transform="matrix(0.31217925,0,0,0.31217925,6.5518283,7.2551329)"
     id="g55" />
  <g
     transform="matrix(0.31217925,0,0,0.31217925,6.5518283,7.2551329)"
     id="g57" />
  <g
     transform="matrix(0.31217925,0,0,0.31217925,6.5518283,7.2551329)"
     id="g59" />
  <g
     transform="matrix(0.31217925,0,0,0.31217925,6.5518283,7.2551329)"
     id="g61" />
  <g
     transform="matrix(0.31217925,0,0,0.31217925,6.5518283,7.2551329)"
     id="g63" />
  <g
     transform="matrix(0.31217925,0,0,0.31217925,6.5518283,7.2551329)"
     id="g65" />
  <g
     transform="matrix(0.31217925,0,0,0.31217925,6.5518283,7.2551329)"
     id="g67" />
  <g
     transform="matrix(0.31217925,0,0,0.31217925,6.5518283,7.2551329)"
     id="g69" />
  <g
     transform="matrix(0.31217925,0,0,0.31217925,6.5518283,7.2551329)"
     id="g71" />
  <g
     transform="matrix(0.31217925,0,0,0.31217925,6.5518283,7.2551329)"
     id="g73" />
  <g
     transform="matrix(0.31217925,0,0,0.31217925,6.5518283,7.2551329)"
     id="g75" />
  <g
     transform="matrix(0.31217925,0,0,0.31217925,6.5518283,7.2551329)"
     id="g77" />
  <text
     xml:space="preserve"
     style="font-style:normal;font-weight:normal;font-size:104.9484024px;line-height:125%;font-family:sans-serif;letter-spacing:0px;word-spacing:0px;fill:#000000;fill-opacity:1;stroke:none;stroke-width:1px;stroke-linecap:butt;stroke-linejoin:miter;stroke-opacity:1"
     x="186.14893"
     y="118.28911"
     id="text3426"
     sodipodi:linespacing="125%"><tspan
       sodipodi:role="line"
       id="tspan3428"
       x="186.14893"
       y="118.28911">WEBSTACKS</tspan></text>
</svg>
