<svg xmlns="http://www.w3.org/2000/svg" height="512pt" version="1.1" viewBox="-53 0 512 512.00001" width="512pt">
<g id="surface1">
<path d="M 194.207031 273.65625 L 203.035156 273.65625 L 203.035156 0 L 0 0 L 0 512 L 203.035156 512 L 203.035156 273.65625 Z M 97.105469 300.136719 L 72.140625 275.171875 L 97.105469 300.136719 L 147.042969 250.199219 Z M 97.105469 211.863281 L 72.140625 186.898438 L 97.105469 211.863281 L 147.042969 161.925781 Z M 153.28125 79.890625 L 103.34375 129.828125 C 99.898438 133.273438 94.308594 133.273438 90.863281 129.828125 L 65.898438 104.863281 C 62.511719 101.355469 62.609375 95.765625 66.117188 92.378906 C 69.535156 89.074219 74.960938 89.074219 78.378906 92.378906 L 97.105469 111.101562 L 140.800781 67.40625 C 144.308594 64.019531 149.898438 64.117188 153.285156 67.625 C 156.585938 71.046875 156.585938 76.46875 153.28125 79.890625 Z M 153.28125 79.890625 " style=" stroke:none;fill-rule:nonzero;fill:rgb(100%,85.490196%,26.666667%);fill-opacity:1;" />
<path d="M 406.070312 0 L 203.035156 0 L 203.035156 512 L 406.070312 512 Z M 406.070312 0 " style=" stroke:none;fill-rule:nonzero;fill:rgb(100%,88.235294%,41.176471%);fill-opacity:1;" />
<path d="M 140.800781 67.40625 L 97.101562 111.101562 L 78.378906 92.378906 C 74.875 88.992188 69.285156 89.089844 65.898438 92.597656 C 62.59375 96.019531 62.59375 101.441406 65.898438 104.863281 L 90.863281 129.828125 C 94.308594 133.273438 99.898438 133.273438 103.34375 129.828125 L 153.28125 79.890625 C 156.667969 76.382812 156.570312 70.792969 153.066406 67.40625 C 149.644531 64.105469 144.222656 64.105469 140.800781 67.40625 Z M 97.105469 123.585938 L 72.140625 98.621094 L 97.105469 123.585938 L 147.042969 73.648438 Z M 97.105469 123.585938 " style=" stroke:none;fill-rule:nonzero;fill:rgb(42.745098%,43.137255%,44.313725%);fill-opacity:1;" />
<path d="M 335.449219 114.757812 L 194.207031 114.757812 C 189.332031 114.757812 185.378906 110.808594 185.378906 105.929688 C 185.378906 101.054688 189.332031 97.101562 194.207031 97.101562 L 335.449219 97.101562 C 340.324219 97.101562 344.277344 101.054688 344.277344 105.929688 C 344.277344 110.808594 340.324219 114.757812 335.449219 114.757812 Z M 335.449219 114.757812 " style=" stroke:none;fill-rule:nonzero;fill:rgb(42.745098%,43.137255%,44.313725%);fill-opacity:1;" />
<path d="M 335.449219 194.207031 L 194.207031 194.207031 C 189.332031 194.207031 185.378906 190.253906 185.378906 185.378906 C 185.378906 180.503906 189.332031 176.550781 194.207031 176.550781 L 335.449219 176.550781 C 340.324219 176.550781 344.277344 180.503906 344.277344 185.378906 C 344.277344 190.253906 340.324219 194.207031 335.449219 194.207031 Z M 335.449219 194.207031 " style=" stroke:none;fill-rule:nonzero;fill:rgb(42.745098%,43.137255%,44.313725%);fill-opacity:1;" />
<path d="M 97.105469 220.691406 C 94.761719 220.6875 92.519531 219.757812 90.863281 218.101562 L 65.898438 193.140625 C 62.511719 189.632812 62.609375 184.042969 66.117188 180.65625 C 69.535156 177.351562 74.960938 177.351562 78.378906 180.65625 L 97.105469 199.378906 L 140.800781 155.683594 C 144.308594 152.296875 149.898438 152.394531 153.285156 155.902344 C 156.585938 159.320312 156.585938 164.746094 153.285156 168.167969 L 103.347656 218.101562 C 101.691406 219.757812 99.445312 220.6875 97.105469 220.691406 Z M 97.105469 220.691406 " style=" stroke:none;fill-rule:nonzero;fill:rgb(42.745098%,43.137255%,44.313725%);fill-opacity:1;" />
<path d="M 335.449219 282.484375 L 194.207031 282.484375 C 189.332031 282.484375 185.378906 278.53125 185.378906 273.65625 C 185.378906 268.78125 189.332031 264.828125 194.207031 264.828125 L 335.449219 264.828125 C 340.324219 264.828125 344.277344 268.78125 344.277344 273.65625 C 344.277344 278.53125 340.324219 282.484375 335.449219 282.484375 Z M 335.449219 282.484375 " style=" stroke:none;fill-rule:nonzero;fill:rgb(42.745098%,43.137255%,44.313725%);fill-opacity:1;" />
<path d="M 97.105469 308.964844 C 94.761719 308.964844 92.519531 308.035156 90.863281 306.378906 L 65.898438 281.414062 C 62.390625 278.027344 62.292969 272.4375 65.679688 268.933594 C 69.066406 265.425781 74.65625 265.328125 78.164062 268.714844 C 78.238281 268.785156 78.308594 268.859375 78.378906 268.933594 L 97.105469 287.65625 L 140.800781 243.960938 C 144.1875 240.453125 149.777344 240.355469 153.285156 243.742188 C 156.789062 247.128906 156.886719 252.71875 153.5 256.222656 C 153.429688 256.296875 153.355469 256.371094 153.285156 256.441406 L 103.347656 306.378906 C 101.691406 308.035156 99.445312 308.964844 97.105469 308.964844 Z M 97.105469 308.964844 " style=" stroke:none;fill-rule:nonzero;fill:rgb(42.745098%,43.137255%,44.313725%);fill-opacity:1;" />
<path d="M 335.449219 459.035156 L 229.519531 459.035156 C 224.640625 459.035156 220.691406 455.082031 220.691406 450.207031 C 220.691406 445.332031 224.640625 441.378906 229.519531 441.378906 L 335.449219 441.378906 C 340.324219 441.378906 344.277344 445.332031 344.277344 450.207031 C 344.277344 455.082031 340.324219 459.035156 335.449219 459.035156 Z M 335.449219 459.035156 " style=" stroke:none;fill-rule:nonzero;fill:rgb(42.745098%,43.137255%,44.313725%);fill-opacity:1;" />
</g>
</svg>